<svg xmlns="http://www.w3.org/2000/svg" data-name="Layer 1" viewBox="0 0 64 64"><circle cx="32" cy="32" r="27" fill="#f26522"/><path fill="#2a292a" d="M48.75,53.16a26.94,26.94,0,0,1-33.5,0L16,50.5A9.12,9.12,0,0,1,24.79,44H39.21A9.12,9.12,0,0,1,48,50.5Z"/><path fill="#ffd2b4" d="M36,39v5.76a2,2,0,0,1-1.11,1.8h0a6.46,6.46,0,0,1-5.78,0h0A2,2,0,0,1,28,44.76V39Z"/><path fill="#ffd2b4" d="M32,15.21C43.45,15.21,42.47,26,42.47,26c1.68-.17,3,.49,3,2.86s-1,2.86-2.35,3a.29.29,0,0,0-.27.27c-.39,3.69-3,6.39-5.58,8.2a9.16,9.16,0,0,1-10.56,0c-2.57-1.81-5.19-4.52-5.58-8.2a.29.29,0,0,0-.27-.27c-1.31-.13-2.35-.63-2.35-3s1.27-3,2.94-2.86C21.47,26,20.54,15.21,32,15.21Z"/><path fill="#262234" d="M36,41.08v1.5a9.16,9.16,0,0,1-8,0v-1.5a9.16,9.16,0,0,0,8,0Z" opacity=".1"/><circle cx="28.04" cy="28.15" r="1.7" fill="#3c2415"/><circle cx="35.96" cy="28.15" r="1.7" fill="#3c2415"/><path fill="#611c24" d="M35.87,32.53a1,1,0,0,1,1,1.25,5,5,0,0,1-9.68,0,1,1,0,0,1,1-1.25Z"/><path fill="#be1e2d" d="M34.42,36.91a5,5,0,0,1-4.84,0c.2-1.23,1.21-1.57,2.42-1.57S34.22,35.68,34.42,36.91Z"/><path fill="#fff" d="M34.87,32.53v.95a.37.37,0,0,1-.36.37h-5a.37.37,0,0,1-.36-.37v-.95Z"/><path fill="#3c2415" d="M32,13.63c-8.83,0-11.31,6.71-11.31,12.72A9.56,9.56,0,0,0,21,28.47c.18.72,2.07.69,2.19,0a16.75,16.75,0,0,1,1.11-6.85A1,1,0,0,1,25.34,21c2.24.33,9.12,1.18,13.27.12a1,1,0,0,1,1.2.6,16.94,16.94,0,0,1,1.06,6.75c.11.64,2,.67,2.19,0a9.56,9.56,0,0,0,.26-2.12C43.31,20.33,40.84,13.63,32,13.63Z"/><path fill="#d1d3d4" d="M36.69,47.24V58.59a27,27,0,0,1-9.38,0V47.24Z"/><path fill="#be1e2d" d="M33.49,50.86h-3a.5.5,0,0,1-.48-.37l-.72-2.62a.5.5,0,0,1,.48-.63h4.42a.5.5,0,0,1,.48.63L34,50.49A.5.5,0,0,1,33.49,50.86Z"/><path fill="#be1e2d" d="M34.32,58.9c-.77.07-1.54.1-2.32.1s-1.55,0-2.32-.1l1.65-9.09h1.34Z"/><polygon fill="#f1f2f2" points="32 47.24 28.34 51.28 26.18 44 28 42.74 32 47.24"/><polygon fill="#f1f2f2" points="32 47.24 35.66 51.28 37.82 44 36 42.74 32 47.24"/><path fill="#2a292a" d="M30.9 59a26.25 26.25 0 0 1-6.73-1.12l.08-13.36a.85.85 0 0 1 .13-.47 1 1 0 0 1 .69-.51l2.43-.42.2.91zM39.83 57.85A26.25 26.25 0 0 1 33.1 59l3.2-15 .2-.91 2.43.42a1 1 0 0 1 .69.51h0a.94.94 0 0 1 .12.47z"/><path fill="#f1f2f2" d="M38.83,41.29,32,44.46l-6.83-3.16a.65.65,0,0,0-.92.59V57.17l7.75,2,7.75-2V41.88A.65.65,0,0,0,38.83,41.29Z"/><path fill="#d1d3d4" d="M40.9,42.12,32,44.77l-8.9-2.65a.65.65,0,0,0-.83.62V58.17l9.73,2,9.73-2V42.74A.65.65,0,0,0,40.9,42.12Z"/><path fill="#be1e2d" d="M42.57,43.22l-9.7,1.71a5,5,0,0,1-1.74,0l-9.7-1.71a.65.65,0,0,0-.76.64V58.33a1,1,0,0,0,.83,1L31.13,61a5,5,0,0,0,1.74,0l9.64-1.7a1,1,0,0,0,.83-1V43.85A.65.65,0,0,0,42.57,43.22Z"/><rect width="4.55" height="7.07" x="41.04" y="50.07" fill="#ffd2b4" rx="2.02" ry="2.02" transform="rotate(180 43.31 53.605)"/><rect width="4.55" height="7.07" x="18.42" y="50.07" fill="#ffd2b4" rx="2.02" ry="2.02"/><path fill="#a21b25" d="M32.75,44.95V61a4.72,4.72,0,0,1-1.5,0V44.95A5.39,5.39,0,0,0,32.75,44.95Z"/></svg>